<svg width="374" height="812" viewBox="0 0 374 812" fill="none" xmlns="http://www.w3.org/2000/svg">
<path d="M0 497V508L83 461L154.5 357C154.5 357 143.304 345.574 144 338.5C147 308 152.5 274.5 124.5 237.5C107.037 214.424 77.0368 218.511 67 220.5C35.8347 226.678 44 249.667 52 260.5C56.5297 266.634 61.246 267.997 67 273C78.5 283 81.5 312.858 81.5 335C81.5 338 80 339 78.5 339C77 339 75.6154 338.446 75 335C72.5 321 55.5 310 42 310C16.8 310 12.5056 323.817 15.5 331.5C21.7391 347.509 30.981 338.276 34 332C39.8956 319.744 49.9386 325.018 54 328C68.5087 338.654 72.2674 362.336 72 373C70.9339 415.513 12.5 483 0 497Z" fill="#364B54"/>
<path d="M0 507V570.5L301.5 459L297.5 302C319.9 243.6 306.856 177.255 296.5 153C270.027 91.0002 196.208 88.857 165 102C118 121.794 135.833 154.333 152.5 167.5C184.5 211.5 180.022 246.854 170 280.5C163 304 155 322 144 345.5C120.21 396.323 44.5 474 0 507Z" fill="#39868F"/>
<path d="M135.5 0.5C295 46.5 298.617 99.0914 312 121.5C333.5 157.5 329.636 221.486 318 253C234 480.5 86 519.5 0 557V811.5H374.5V0.5H135.5Z" fill="#8DD2CA"/>
</svg>
