<svg width="376" height="315" viewBox="0 0 376 315" fill="none" xmlns="http://www.w3.org/2000/svg">
<path d="M1.5 4.5V67L247.5 102L273 89C230.5 53 33 11.5 1.5 4.5Z" fill="#E8C585"/>
<path d="M1 41.5V211.5L263 108.5L254.5 95.5C218.5 68.5 92 53.5 1 41.5Z" fill="#F9DDC3"/>
<path d="M303 69L376 0V22L324.5 57L320 60L303 69Z" fill="#364B54"/>
<path d="M185.5 127L256 97C284.5 82.5 329.5 53 376 10V65L190 136.5L185.5 127Z" fill="#3A868F"/>
<path d="M1 190L0.5 315H376V60C376 60 375.5 60.5 358.5 66.5C340.088 72.9985 237.5 108.5 188 126C167.13 133.378 50 170.167 1 190Z" fill="#8DD2CA"/>
</svg>
