<svg width="124" height="88" viewBox="0 0 124 88" fill="none" xmlns="http://www.w3.org/2000/svg">
<path d="M123.124 53.3097C123.124 72.4686 107.422 88 88.0529 88C68.6834 88 52.9813 72.4686 52.9813 53.3097C53.7437 34.1507 68.6834 20.5254 88.0529 20.5254C107.422 20.5254 120.837 34.249 123.124 53.3097Z" fill="#39868F"/>
<path d="M54.5062 44.1604C54.3305 47.3395 54.4399 55.9928 55.6498 60.1713C58.6283 70.4575 66.6924 74.9281 69.3735 76.9447C75.9314 81.8772 89.7193 82.1252 96.0583 81.138C105.223 79.7107 112.832 72.7515 115.881 69.7016C118.885 66.698 122.562 59.4025 123.124 54.8344C124.29 45.3734 118.169 34.6303 112.832 29.2931C105.346 21.8072 92.3746 18.9611 86.9092 19.0004C74.7108 19.0882 65.5392 27.5817 61.7492 31.1992C57.3558 35.3926 54.6104 42.2742 54.5062 44.1604Z" fill="#8DD2CA"/>
<path d="M85.3844 24.7188C84.6773 24.7187 84.2407 25.1 84.2407 25.8624C84.2407 26.6248 84.6653 27.006 85.3844 27.006C86.1034 27.006 86.528 26.5681 86.528 25.8624C86.528 25.1567 86.0915 24.7188 85.3844 24.7188Z" fill="#DEFCF7"/>
<path d="M93.771 23.1939C92.2498 23.089 90.3401 24.3375 90.3401 25.8624C90.3401 27.006 91.865 28.1497 93.3898 28.5309C93.4031 28.5342 93.4109 28.5344 93.4244 28.5366C95.0331 28.8037 95.9524 28.9121 97.5832 28.9121C99.413 28.9121 100.606 27.6534 100.633 27.006C100.734 24.5684 95.941 23.3435 93.771 23.1939Z" fill="#DEFCF7"/>
<path d="M101.776 30.8183C100.004 32.4092 100.282 34.461 101.014 35.0117C104.192 37.4011 108.638 44.1607 108.638 47.5917C108.638 51.2513 111.688 52.1662 113.213 52.1662C115.653 52.1662 117.025 50.2601 117.025 47.5917C117.025 41.1873 112.235 34.4662 109.782 31.962C106.16 28.2646 102.98 29.7381 101.776 30.8183Z" fill="#DEFCF7"/>
<path d="M43.9548 21.3814C43.9548 33.321 34.1695 43 22.0987 43C10.0279 43 0.242554 33.321 0.242554 21.3814C0.717687 9.44182 10.0279 0.950684 22.0987 0.950684C34.1695 0.950684 42.5294 9.50309 43.9548 21.3814Z" fill="#39868F"/>
<path d="M1.19283 15.6797C1.08337 17.6609 1.15152 23.0534 1.90553 25.6575C3.76167 32.0677 8.78716 34.8537 10.458 36.1104C14.5448 39.1843 23.1372 39.3389 27.0876 38.7236C32.799 37.8342 37.5405 33.4973 39.4411 31.5966C41.3129 29.7248 43.6042 25.1784 43.9549 22.3315C44.6812 16.4356 40.8665 9.74061 37.5406 6.41455C32.8756 1.74943 24.792 -0.0242538 21.386 0.00025009C13.7841 0.0549416 8.06849 5.34803 5.70662 7.60237C2.96867 10.2157 1.25778 14.5042 1.19283 15.6797Z" fill="#8DD2CA"/>
<path d="M20.4358 3.56396C19.9951 3.56396 19.7231 3.80153 19.7231 4.27667C19.7231 4.7518 19.9877 4.98937 20.4358 4.98937C20.8839 4.98937 21.1484 4.71644 21.1485 4.27667C21.1485 3.83689 20.8764 3.56396 20.4358 3.56396Z" fill="#DEFCF7"/>
<path d="M25.6622 2.6137C24.7142 2.54833 23.5241 3.32639 23.5241 4.27666C23.5241 4.98936 24.4744 5.70207 25.4246 5.93964C25.4329 5.94171 25.4378 5.94183 25.4462 5.94323C26.4487 6.10967 27.0216 6.1772 28.0379 6.1772C29.1782 6.1772 29.9217 5.39281 29.9384 4.98937C30.0014 3.47025 27.0145 2.70695 25.6622 2.6137Z" fill="#DEFCF7"/>
<path d="M30.6511 7.36522C29.5464 8.35665 29.7195 9.63531 30.1759 9.97845C32.1566 11.4675 34.9273 15.6801 34.9273 17.8182C34.9273 20.0988 36.8278 20.669 37.7781 20.669C39.2985 20.669 40.1538 19.4811 40.1538 17.8182C40.1538 13.827 37.1686 9.63852 35.64 8.07792C33.3831 5.77379 31.4012 6.69202 30.6511 7.36522Z" fill="#DEFCF7"/>
</svg>
