<svg width="93" height="91" viewBox="0 0 93 91" fill="none" xmlns="http://www.w3.org/2000/svg">
<path d="M92 45.5C92 70.629 71.4051 91 46 91C20.5949 91 0 70.629 0 45.5C1 20.371 20.5949 2.5 46 2.5C71.4051 2.5 89 20.5 92 45.5Z" fill="#39868F"/>
<path d="M1.99996 33.4998C1.76957 37.6696 1.91301 49.0192 3.49996 54.4998C7.40652 67.9912 17.9835 73.8549 21.5 76.4998C30.1014 82.9693 48.1856 83.2947 56.5 81.9998C68.5206 80.1277 78.4999 71 82.5 66.9998C86.4395 63.0602 91.2619 53.4914 92 47.4998C93.5286 35.0908 85.5 21 78.5 13.9998C68.6818 4.18125 51.6684 0.448221 44.5 0.499794C28.5004 0.614902 16.471 11.7551 11.5 16.4998C5.73751 21.9999 2.13665 31.0259 1.99996 33.4998Z" fill="#8DD2CA"/>
<path d="M42.5 8C41.5726 8 41 8.5 41 9.5C41 10.5 41.5569 11 42.5 11C43.4431 11 44 10.4256 44 9.5C44 8.57442 43.4274 8 42.5 8Z" fill="#DEFCF7"/>
<path d="M53.5 6.00002C51.5047 5.86244 49 7.5 49 9.5C49 11 51 12.5 53 13C53.0174 13.0044 53.0276 13.0046 53.0453 13.0076C55.1553 13.3579 56.3612 13.5 58.5 13.5C60.9 13.5 62.4648 11.8491 62.5 11C62.6325 7.80277 56.3461 6.19628 53.5 6.00002Z" fill="#DEFCF7"/>
<path d="M64 16.0001C61.6749 18.0867 62.0394 20.7779 63 21.5001C67.1687 24.6341 73 33.5001 73 38.0001C73 42.8001 77 44.0001 79 44.0001C82.2 44.0001 84 41.5001 84 38.0001C84 29.6001 77.7173 20.7846 74.5 17.5001C69.75 12.6507 65.5788 14.5832 64 16.0001Z" fill="#DEFCF7"/>
</svg>
