<svg width="155" height="166" viewBox="0 0 155 166" fill="none" xmlns="http://www.w3.org/2000/svg">
<path d="M154 120.5C154 145.629 133.405 166 108 166C82.5949 166 62 145.629 62 120.5C63 95.371 82.5949 77.5 108 77.5C133.405 77.5 151 95.5 154 120.5Z" fill="#39868F"/>
<path d="M64 108.5C63.7696 112.67 63.9131 124.019 65.5 129.5C69.4066 142.991 79.9836 148.855 83.5001 151.5C92.1015 157.969 110.186 158.295 118.5 157C130.521 155.128 140.5 146 144.5 142C148.44 138.06 153.262 128.491 154 122.5C155.529 110.091 147.5 96 140.5 88.9998C130.682 79.1813 113.668 75.4482 106.5 75.4998C90.5005 75.6149 78.471 86.7551 73.5001 91.4998C67.7376 96.9999 64.1367 106.026 64 108.5Z" fill="#8DD2CA"/>
<path d="M104.5 83C103.573 83 103 83.5 103 84.5C103 85.5 103.557 86 104.5 86C105.443 86 106 85.4256 106 84.5C106 83.5744 105.427 83 104.5 83Z" fill="#DEFCF7"/>
<path d="M115.5 81C113.505 80.8624 111 82.5 111 84.5C111 86 113 87.5 115 88C115.017 88.0044 115.028 88.0046 115.045 88.0076C117.155 88.3579 118.361 88.5 120.5 88.5C122.9 88.5 124.465 86.8491 124.5 86C124.633 82.8028 118.346 81.1963 115.5 81Z" fill="#DEFCF7"/>
<path d="M126 91.0001C123.675 93.0867 124.039 95.7779 125 96.5001C129.169 99.6341 135 108.5 135 113C135 117.8 139 119 141 119C144.2 119 146 116.5 146 113C146 104.6 139.717 95.7846 136.5 92.5001C131.75 87.6507 127.579 89.5832 126 91.0001Z" fill="#DEFCF7"/>
<path d="M70.2073 41.5541C77.4828 57.1564 70.5936 75.7674 54.8197 83.1229C39.0459 90.4783 20.3608 83.7929 13.0853 68.1905C6.43067 52.2986 13.4228 35.5294 29.1966 28.174C44.9705 20.8185 61.1065 26.9004 70.2073 41.5541Z" fill="#39868F"/>
<path d="M10.8527 60.1607C11.9169 62.8164 15.292 69.8217 17.8641 72.7651C24.1958 80.0108 32.4606 80.5892 35.4098 81.2133C42.6234 82.7398 53.9459 77.706 58.7334 74.4948C65.6549 69.8521 69.2082 61.2955 70.5337 57.6537C71.839 54.067 72.0628 46.7297 70.7864 42.7958C68.1427 34.6486 59.0782 28.2243 52.7052 25.9045C43.7664 22.6509 32.1221 25.2589 27.6863 27.3664C17.7856 32.0702 13.542 42.4699 11.8292 46.855C9.84379 51.9384 10.2213 58.5851 10.8527 60.1607Z" fill="#8DD2CA"/>
<path d="M28.616 32.6023C28.0401 32.8708 27.8294 33.3471 28.1189 33.968C28.4084 34.5889 28.899 34.7381 29.4845 34.465C30.0701 34.192 30.2496 33.6741 29.9816 33.0994C29.7136 32.5247 29.1918 32.3338 28.616 32.6023Z" fill="#DEFCF7"/>
<path d="M34.8667 28.1758C33.5881 28.668 32.507 30.41 33.0861 31.6518C33.5204 32.5831 35.1964 32.9354 36.583 32.6668C36.5951 32.6644 36.6015 32.6617 36.6133 32.6584C38.0248 32.265 38.8147 32.0041 40.1426 31.3848C41.6328 30.69 42.1264 29.2119 41.9024 28.6745C41.059 26.651 36.6907 27.4736 34.8667 28.1758Z" fill="#DEFCF7"/>
<path d="M44.2813 31.3446C43.4418 33.3134 44.4472 34.8788 45.2528 35.0491C48.7485 35.788 54.936 39.6045 56.2389 42.3985C57.6286 45.3788 60.4596 44.9658 61.7014 44.3867C63.6883 43.4602 64.0821 41.3868 63.0687 39.2137C60.6367 33.9982 54.1835 30.3438 51.235 29.2359C46.8817 27.6002 44.8513 30.0078 44.2813 31.3446Z" fill="#DEFCF7"/>
<path d="M146.729 21.8783C146.729 34.0957 136.716 43.9999 124.365 43.9999C112.013 43.9999 102 34.0957 102 21.8783C102.486 9.66087 112.013 0.972168 124.365 0.972168C136.716 0.972168 145.271 9.72357 146.729 21.8783Z" fill="#39868F"/>
<path d="M102.972 16.0445C102.86 18.0718 102.93 23.5898 103.702 26.2545C105.601 32.8138 110.743 35.6647 112.453 36.9506C116.635 40.096 125.427 40.2542 129.47 39.6246C135.314 38.7145 140.166 34.2767 142.111 32.3318C144.026 30.4164 146.371 25.7642 146.729 22.8511C147.473 16.818 143.569 9.96725 140.166 6.56381C135.392 1.79014 127.121 -0.0248181 123.635 0.000255909C115.857 0.05622 110.008 5.47247 107.591 7.77926C104.79 10.4533 103.039 14.8417 102.972 16.0445Z" fill="#8DD2CA"/>
<path d="M122.663 3.64673C122.212 3.64673 121.934 3.88982 121.934 4.37601C121.934 4.8622 122.205 5.1053 122.663 5.1053C123.122 5.1053 123.392 4.82602 123.392 4.37601C123.392 3.92601 123.114 3.64673 122.663 3.64673Z" fill="#DEFCF7"/>
<path d="M128.011 2.6741C127.041 2.6072 125.823 3.40337 125.823 4.37574C125.823 5.10503 126.796 5.83432 127.768 6.07742C127.776 6.07953 127.781 6.07966 127.79 6.08109C128.816 6.2514 129.402 6.32051 130.442 6.32051C131.609 6.32051 132.37 5.51787 132.387 5.10504C132.451 3.55057 129.395 2.76951 128.011 2.6741Z" fill="#DEFCF7"/>
<path d="M133.116 7.53601C131.986 8.55051 132.163 9.85892 132.63 10.2101C134.657 11.7338 137.492 16.0443 137.492 18.2322C137.492 20.5659 139.436 21.1493 140.409 21.1493C141.965 21.1493 142.84 19.9338 142.84 18.2322C142.84 14.1482 139.785 9.86221 138.221 8.2653C135.912 5.90756 133.884 6.84715 133.116 7.53601Z" fill="#DEFCF7"/>
</svg>
