<svg width="383" height="299" viewBox="0 0 383 299" fill="none" xmlns="http://www.w3.org/2000/svg">
<path d="M312.592 201.771L281.379 229.579L228.6 263.63C186.036 289.736 136.662 301.916 120.772 298.249C108.968 295.525 111.124 282.926 115.097 276.683C127.582 262 136.095 264.27 146.878 262.495C173.551 262.495 232.572 244.902 258.678 232.984C268.537 228.483 298.972 211.608 312.592 201.771Z" fill="#39868F"/>
<path d="M369.344 124.734L351.751 167.297C345.508 178.007 342.292 197.754 343.805 207.023C347.437 214.742 346.454 220.455 345.508 223.481C343.805 227.454 339.265 230.292 336.428 229.724C330.752 229.724 325.645 223.481 325.077 220.644C323.375 212.131 327.915 199.267 331.32 193.403C332.228 191.587 331.32 191.133 331.32 191.133C329.504 190.225 327.915 192.268 327.347 193.403L302.944 234.264C296.134 246.976 286.108 247.506 281.946 246.182C276.044 245.274 276.271 235.66 277.028 232.066L323.942 191.133L347.21 163.892L369.344 124.734Z" fill="#2E3337"/>
<path d="M337.374 19.666C336.466 33.2864 333.59 68.4723 332.266 84.3627C332.266 114.328 290.27 154.356 269.272 170.625C232.951 202.86 168.254 212.267 130.231 213.189C92.2071 214.11 91.6396 213.189 65.5339 201.838C39.4282 190.488 24.6728 179.705 11.0525 192.191C-2.5679 204.676 -4.83796 226.809 16.7276 241.564C53.0486 266.989 127.582 265.4 160.309 261.427C208.434 261.427 265.11 233.43 287.432 219.431C345.319 183.13 368.587 133.737 373.127 112.738C381.64 97.9831 382.207 84.3627 382.207 84.3627C383.91 46.9068 382.207 19.666 382.207 9.45076C379.937 6.04567 370.29 0.938039 360.074 0.938039C349.859 0.938039 335.671 13.4234 337.374 19.666Z" fill="#8DD2CA"/>
</svg>
