<svg width="428" height="171" viewBox="0 0 428 171" fill="none" xmlns="http://www.w3.org/2000/svg">
<path d="M1 144.5V170.266C40.3928 170.266 77.127 165.37 91.8229 162.889C91.8229 162.889 127.497 158.53 149.652 152.583C174.802 145.832 212.063 129.107 212.063 129.107C251.455 109.411 291.841 111.686 307.109 113.785C325.95 116.376 337.162 116.393 355.778 112.503C394.14 104.487 419.715 96.0892 427.349 90.7452V54.1008C417.615 75.2858 392.04 93.4172 380.398 98.1886L353.487 106.205L285.352 107.35C244.699 103.342 178.472 132.352 145.072 145.712C118.963 152.583 38.9805 147.745 1 144.5Z" fill="#E8C585"/>
<path d="M0.921387 149.147C37.1078 151.896 102.266 150.292 130.322 149.147C160.096 144.567 196.168 130.443 210.482 123.954C230.636 114.335 265.449 109.258 280.336 107.922L356.487 106.777C401.72 99.3338 417.043 75.2858 427.921 52.9556V0.279187H0.921387V149.147Z" fill="#F9DDC3"/>
</svg>
