<svg width="384" height="299" viewBox="0 0 384 299" fill="none" xmlns="http://www.w3.org/2000/svg">
<path d="M71.265 97.2201L102.478 69.4119L155.257 35.361C197.821 9.25529 247.195 -2.92445 263.085 0.742558C274.889 3.46663 272.733 16.0655 268.76 22.3081C256.275 36.9916 247.762 34.7215 236.979 36.496C210.306 36.496 151.285 54.089 125.179 66.0068C115.32 70.5078 84.8854 87.3832 71.265 97.2201Z" fill="#39868F"/>
<path d="M14.5135 174.258L32.1065 131.694C38.3492 120.984 41.5651 101.237 40.0517 91.9678C36.4196 84.2496 37.4033 78.5367 38.3492 75.5099C40.0517 71.5373 44.5918 68.6997 47.4294 69.2673C53.1046 69.2673 58.2122 75.5099 58.7797 78.3475C60.4823 86.8602 55.9421 99.7239 52.5371 105.588C51.629 107.404 52.5371 107.858 52.5371 107.858C54.3531 108.766 55.9421 106.723 56.5097 105.588L80.9128 64.7271C87.723 52.0148 97.7491 51.4851 101.911 52.8093C107.813 53.7173 107.586 63.331 106.829 66.9253L59.9147 107.858L36.6466 135.099L14.5135 174.258Z" fill="#2E3337"/>
<path d="M46.4835 279.325C47.3916 265.705 50.267 230.519 51.5912 214.629C51.5912 184.664 93.5873 144.635 114.585 128.366C150.906 96.1314 215.603 86.7244 253.627 85.8026C291.65 84.8809 292.218 85.8026 318.323 97.1529C344.429 108.503 359.184 119.286 372.805 106.801C386.425 94.3154 388.695 72.1823 367.13 57.4269C330.809 32.0022 256.275 33.5913 223.548 37.5639C175.423 37.5639 118.747 65.5613 96.4248 79.56C38.5383 115.862 15.2702 165.255 10.7301 186.253C2.21738 201.008 1.64987 214.629 1.64987 214.629C-0.0526655 252.085 1.64987 279.325 1.64987 289.541C3.91993 292.946 13.5677 298.053 23.7829 298.053C33.9982 298.053 48.1861 285.568 46.4835 279.325Z" fill="#8DD2CA"/>
</svg>
