<svg width="334" height="261" viewBox="0 0 334 261" fill="none" xmlns="http://www.w3.org/2000/svg">
<path d="M272.621 175.586L245.4 199.814L199.372 229.48C162.253 252.225 119.194 262.836 105.336 259.642C95.0416 257.268 96.9223 246.292 100.387 240.853C111.275 228.06 118.699 230.038 128.103 228.492C151.364 228.492 202.836 213.164 225.603 202.78C234.201 198.859 260.743 184.156 272.621 175.586Z" fill="#39868F"/>
<path d="M322.114 108.468L306.771 145.551C301.327 154.882 298.522 172.086 299.842 180.162C303.009 186.886 302.152 191.864 301.327 194.501C299.842 197.962 295.882 200.434 293.408 199.94C288.459 199.94 284.004 194.501 283.509 192.029C282.025 184.612 285.984 173.405 288.953 168.295C289.745 166.713 288.953 166.318 288.953 166.318C287.37 165.526 285.984 167.306 285.489 168.295L264.207 203.895C258.268 214.971 249.524 215.432 245.895 214.279C240.748 213.488 240.946 205.112 241.606 201.98L282.519 166.318L302.811 142.584L322.114 108.468Z" fill="#2E3337"/>
<path d="M294.233 16.9279C293.441 28.7946 290.933 59.4501 289.778 73.2946C289.778 99.4013 253.154 134.276 234.842 148.45C203.166 176.535 146.745 184.73 113.585 185.533C80.4247 186.337 79.9298 185.533 57.1633 175.645C34.3967 165.756 21.5286 156.361 9.65039 167.239C-2.22784 178.117 -4.20755 197.4 14.5996 210.256C46.2749 232.407 111.275 231.022 139.816 227.561C181.786 227.561 231.212 203.169 250.679 190.972C301.162 159.345 321.454 116.311 325.413 98.0168C332.837 85.1613 333.332 73.2946 333.332 73.2946C334.817 40.6613 333.332 16.9279 333.332 8.02794C331.352 5.06128 322.938 0.611267 314.03 0.611267C305.121 0.611267 292.748 11.489 294.233 16.9279Z" fill="#8DD2CA"/>
</svg>
