<svg width="427" height="723" viewBox="0 0 427 723" fill="none" xmlns="http://www.w3.org/2000/svg">
<path d="M0.0786133 144.221V169.986C39.4714 169.986 76.2056 165.091 90.9015 162.61C90.9015 162.61 126.576 158.251 148.731 152.304C173.881 145.553 211.141 128.828 211.141 128.828C250.534 109.132 290.919 111.407 306.188 113.506C325.029 116.097 336.24 116.114 354.856 112.224C393.218 104.208 418.793 95.81 426.427 90.466V53.8216C416.694 75.0067 391.119 93.138 379.477 97.9094L352.566 105.925L284.43 107.071C243.778 103.063 177.55 132.073 144.151 145.433C118.041 152.304 38.0591 147.465 0.0786133 144.221Z" fill="#E8C585"/>
<path d="M0 148.868C36.1864 151.617 101.345 150.013 129.401 148.868C159.174 144.288 195.246 130.164 209.561 123.675C229.715 114.056 264.527 108.979 279.414 107.643L355.566 106.498C400.799 99.0546 416.121 75.0067 427 52.6764V0H0V148.868Z" fill="#F9DDC3"/>
<path d="M81.3435 245.941L112.557 218.133L165.336 184.082C207.899 157.976 257.273 145.796 273.164 149.463C284.968 152.187 282.811 164.786 278.839 171.029C266.353 185.712 257.841 183.442 247.058 185.217C220.385 185.217 161.363 202.81 135.257 214.728C125.398 219.229 94.9639 236.104 81.3435 245.941Z" fill="#39868F"/>
<path d="M24.592 322.978L42.185 280.415C48.4277 269.705 51.6436 249.958 50.1302 240.689C46.4981 232.97 47.4818 227.257 48.4277 224.231C50.1302 220.258 54.6703 217.421 57.5079 217.988C63.1831 217.988 68.2907 224.231 68.8582 227.068C70.5608 235.581 66.0206 248.445 62.6155 254.309C61.7075 256.125 62.6155 256.579 62.6155 256.579C64.4316 257.487 66.0206 255.444 66.5881 254.309L90.9913 213.448C97.8015 200.736 107.828 200.206 111.989 201.53C117.892 202.438 117.665 212.052 116.908 215.646L69.9932 256.579L46.7251 283.82L24.592 322.978Z" fill="#2E3337"/>
<path d="M56.562 428.046C57.4701 414.426 60.3455 379.24 61.6697 363.349C61.6697 333.385 103.666 293.356 124.664 277.087C160.985 244.852 225.682 235.445 263.705 234.523C301.729 233.602 302.296 234.523 328.402 245.874C354.507 257.224 369.263 268.007 382.883 255.522C396.504 243.036 398.774 220.903 377.208 206.148C340.887 180.723 266.354 182.312 233.627 186.285C185.502 186.285 128.826 214.282 106.503 228.281C48.6168 264.582 25.3487 313.976 20.8086 334.974C12.2959 349.729 11.7284 363.349 11.7284 363.349C10.0258 400.805 11.7284 428.046 11.7284 438.261C13.9984 441.666 23.6462 446.774 33.8614 446.774C44.0767 446.774 58.2646 434.289 56.562 428.046Z" fill="#8DD2CA"/>
<path d="M339.67 625.492L308.457 653.3L255.678 687.351C213.115 713.457 163.741 725.637 147.85 721.97C136.046 719.245 138.203 706.647 142.175 700.404C154.661 685.72 163.173 687.991 173.956 686.216C200.629 686.216 259.651 668.623 285.756 656.705C295.616 652.204 326.05 635.329 339.67 625.492Z" fill="#39868F"/>
<path d="M396.422 548.455L378.829 591.018C372.586 601.728 369.371 621.475 370.884 630.744C374.516 638.462 373.532 644.175 372.586 647.202C370.884 651.175 366.344 654.012 363.506 653.445C357.831 653.445 352.723 647.202 352.156 644.365C350.453 635.852 354.994 622.988 358.399 617.124C359.307 615.308 358.399 614.854 358.399 614.854C356.583 613.946 354.994 615.989 354.426 617.124L330.023 657.985C323.213 670.697 313.187 671.227 309.025 669.903C303.123 668.995 303.35 659.381 304.106 655.787L351.021 614.854L374.289 587.613L396.422 548.455Z" fill="#2E3337"/>
<path d="M364.452 443.387C363.544 457.007 360.669 492.193 359.344 508.084C359.344 538.048 317.348 578.077 296.35 594.346C260.029 626.581 195.333 635.988 157.309 636.909C119.286 637.831 118.718 636.909 92.6124 625.559C66.5067 614.209 51.7513 603.426 38.131 615.911C24.5106 628.397 22.2405 650.53 43.8061 665.285C80.1271 690.71 154.661 689.121 187.387 685.148C235.513 685.148 292.189 657.151 314.511 643.152C372.397 606.85 395.665 557.457 400.206 536.459C408.718 521.704 409.286 508.084 409.286 508.084C410.988 470.628 409.286 443.387 409.286 433.172C407.016 429.766 397.368 424.659 387.153 424.659C376.937 424.659 362.75 437.144 364.452 443.387Z" fill="#8DD2CA"/>
</svg>
