<svg width="453" height="683" viewBox="0 0 453 683" fill="none" xmlns="http://www.w3.org/2000/svg">
<g clip-path="url(#clip0_786_133)">
<path d="M-27 -293H485V816H-27V-293Z" fill="#FFF0E2"/>
<path d="M0.603271 144.94V170.822C42.1031 170.822 83.4422 165.837 98.9242 163.345L159.847 152.992L225.595 129.41C267.095 109.625 309.641 108.896 325.726 111.005L376.997 112.731C417.412 104.679 444.354 96.2429 452.397 90.8748V54.0647C442.143 75.3455 415.2 93.5588 402.935 98.3518L374.585 106.404L302.804 107.554C259.977 103.528 190.208 132.67 155.021 146.09C127.516 152.992 40.6153 148.199 0.603271 144.94Z" fill="#E8C585"/>
<path d="M0 149.541C38.122 152.302 106.766 150.691 136.322 149.541C167.688 144.94 205.69 130.752 220.77 124.234C242.002 114.571 278.676 109.472 294.36 108.129L374.585 106.979C422.237 99.5021 441.539 75.3455 453 52.9144V0H0V149.541Z" fill="#F9DDC3"/>
<path d="M84.9753 258.389L112.196 234.161L158.224 204.495C195.344 181.75 238.402 171.139 252.26 174.334C262.555 176.707 260.674 187.684 257.21 193.123C246.321 205.915 238.897 203.938 229.494 205.484C206.232 205.484 154.76 220.811 131.993 231.195C123.395 235.116 96.8536 249.819 84.9753 258.389Z" fill="#39868F"/>
<path d="M35.4827 325.508L50.8254 288.424C56.2696 279.093 59.0741 261.889 57.7543 253.813C54.5868 247.089 55.4447 242.111 56.2696 239.474C57.7543 236.013 61.7137 233.541 64.1884 234.035C69.1376 234.035 73.592 239.474 74.0869 241.947C75.5717 249.363 71.6123 260.571 68.6427 265.68C67.8508 267.262 68.6427 267.658 68.6427 267.658C70.2265 268.449 71.6123 266.669 72.1072 265.68L93.389 230.08C99.3281 219.004 108.072 218.543 111.701 219.697C116.848 220.488 116.651 228.864 115.991 231.995L75.0767 267.658L54.7848 291.391L35.4827 325.508Z" fill="#2E3337"/>
<path d="M63.3635 417.047C64.1554 405.181 66.663 374.525 67.8179 360.681C67.8179 334.574 104.442 299.699 122.755 285.525C154.43 257.441 210.852 249.245 244.012 248.442C277.172 247.639 277.666 248.442 300.433 258.331C323.2 268.22 336.068 277.614 347.946 266.736C359.824 255.858 361.804 236.575 342.997 223.72C311.321 201.568 246.321 202.953 217.78 206.414C175.811 206.414 126.384 230.807 106.917 243.003C56.4346 274.631 36.1426 317.664 32.1832 335.958C24.7593 348.814 24.2644 360.681 24.2644 360.681C22.7796 393.314 24.2644 417.047 24.2644 425.947C26.2441 428.914 34.6578 433.364 43.5665 433.364C52.4752 433.364 64.8483 422.486 63.3635 417.047Z" fill="#8DD2CA"/>
<path d="M308.621 573.586L281.4 597.814L235.372 627.48C198.252 650.225 155.194 660.836 141.336 657.642C131.041 655.268 132.922 644.292 136.387 638.853C147.275 626.06 154.699 628.038 164.103 626.492C187.364 626.492 238.836 611.164 261.603 600.78C270.201 596.859 296.743 582.156 308.621 573.586Z" fill="#39868F"/>
<path d="M358.113 506.468L342.771 543.551C337.326 552.882 334.522 570.086 335.842 578.162C339.009 584.886 338.151 589.864 337.326 592.501C335.842 595.962 331.882 598.434 329.408 597.94C324.458 597.94 320.004 592.501 319.509 590.029C318.024 582.612 321.984 571.405 324.953 566.295C325.745 564.713 324.953 564.318 324.953 564.318C323.369 563.526 321.984 565.306 321.489 566.295L300.207 601.895C294.268 612.971 285.524 613.432 281.895 612.279C276.747 611.488 276.945 603.112 277.605 599.98L318.519 564.318L338.811 540.584L358.113 506.468Z" fill="#2E3337"/>
<path d="M330.233 414.928C329.441 426.795 326.933 457.45 325.778 471.295C325.778 497.401 289.154 532.276 270.842 546.45C239.166 574.535 182.745 582.73 149.585 583.533C116.425 584.337 115.93 583.533 93.1631 573.645C70.3965 563.756 57.5285 554.361 45.6503 565.239C33.772 576.117 31.7923 595.4 50.5995 608.256C82.2748 630.407 147.275 629.022 175.816 625.561C217.785 625.561 267.212 601.169 286.679 588.972C337.162 557.345 357.454 514.311 361.413 496.017C368.837 483.161 369.332 471.295 369.332 471.295C370.817 438.661 369.332 414.928 369.332 406.028C367.352 403.061 358.938 398.611 350.03 398.611C341.121 398.611 328.748 409.489 330.233 414.928Z" fill="#8DD2CA"/>
</g>
<defs>
<clipPath id="clip0_786_133">
<rect width="453" height="683" fill="white"/>
</clipPath>
</defs>
</svg>
