<svg width="375" height="761" viewBox="0 0 375 761" fill="none" xmlns="http://www.w3.org/2000/svg">
<path d="M375 696.5C256 684.5 116.5 562.5 97 470.5C90.2 444.5 86 403 89 384.5C93.0018 359.822 106.667 337.333 113.5 328.5C130.7 311.7 142 317.415 148 319C169.2 324.6 160.86 358 146 379.5C122.5 413.5 133.01 459.566 135.5 470.5C147 521 228.5 590.5 231.5 593.5C256.015 618.015 327.5 654 375 656.5V696.5Z" fill="#39868F"/>
<path d="M375 761C332.2 761 192.167 722.833 127.5 704C86.5 689.5 53.5 685 30.5 704.5C22.1 723.3 10 713.667 5.00001 706.5C-2.19999 692.1 21.3333 678.833 34 674L53.5 670.5C43.9 667.7 13.5 644.333 -0.5 633V213.5L21.5 190C31.5 180 53.3333 171.167 63 168C81.4 162 104.333 168.5 113.5 172.5C143.1 183.3 149.167 212 148.5 225C148.5 250.6 128.833 266.333 119 271C94.2 286.6 83.6667 318.833 81.5 333C75.1 364.2 74.8333 382.667 75.5 388C75.5 416 87.1667 454.333 93 470C150.5 594 247 674 375 695.5V761Z" fill="#8DD2CA"/>
<path d="M374.5 657C347.7 657 301.176 638.924 281 630.5C253.668 619.088 217.5 582 210.5 559C207.3 538.2 216.5 533.523 225.5 536C241 540.266 242.5 561 243.5 565C244.7 569.8 253.333 582.5 257.5 588.5L273.5 604.5L263.5 587.5C259.5 577 262.5 568.5 269.5 568.5C280.7 568.5 277.5 577.5 276 580.5C275.194 582.112 275 584 276 586C283 606.5 313.5 624.5 326.5 630.5C346.142 639.566 366 645.833 374.5 646V657Z" fill="#364B54"/>
<path d="M0.5 17V12.5L185.5 27L287.5 72L340.5 142.5L368.5 262.5L375 310V353C354 298.5 366.5 124.5 240 72L239.182 71.6362C206.646 57.1723 149.741 31.8745 0.5 17Z" fill="#E8C585"/>
<path d="M0.5 13V0H375.5V325.5C351 179.5 321 125 305 107.5C272 64.5 205 38 173 33.5C129 27.3125 42.8333 17.8333 0.5 13Z" fill="#F9DDC3"/>
</svg>
