<svg width="641" height="449" viewBox="0 0 641 449" fill="none" xmlns="http://www.w3.org/2000/svg">
<ellipse cx="296.144" cy="310" rx="285" ry="100" transform="rotate(8 296.144 310)" fill="#110000"/>
<ellipse cx="296.429" cy="309.688" rx="89.775" ry="31.5" transform="rotate(8 296.429 309.688)" fill="#93D0F5"/>
<path fill-rule="evenodd" clip-rule="evenodd" d="M13.4929 270.039C21.1795 215.348 153.767 188.771 309.636 210.677C465.506 232.583 585.632 294.677 577.946 349.368C570.259 404.059 437.671 430.636 281.801 408.73C125.932 386.824 5.80659 324.73 13.4929 270.039ZM308.705 218.45C161.586 197.774 36.5588 222.023 29.449 272.612C22.3392 323.201 135.839 380.973 282.958 401.649C430.076 422.325 555.104 398.076 562.214 347.487C569.323 296.898 455.823 239.126 308.705 218.45Z" fill="white"/>
<path d="M70.423 278.632C76.572 234.878 182.642 213.617 307.337 231.142C432.032 248.667 528.133 298.342 521.984 342.096C515.835 385.849 409.765 407.112 285.069 389.587C160.374 372.062 64.2739 322.385 70.423 278.632ZM306.592 237.359C188.897 220.818 88.8755 240.218 83.1876 280.69C77.5001 321.162 168.3 367.381 285.994 383.922C403.689 400.463 503.711 381.063 509.399 340.591C515.086 300.119 424.286 253.901 306.592 237.359Z" fill="white" fill-opacity="0.4"/>
<path d="M115.367 284.906C120.287 249.903 205.143 232.893 304.899 246.913C404.655 260.933 481.536 300.675 476.616 335.678C471.697 370.681 386.84 387.691 287.084 373.671C187.328 359.651 110.448 319.909 115.367 284.906ZM304.302 251.888C210.146 238.655 130.13 254.175 125.579 286.553C121.029 318.931 193.669 355.906 287.824 369.139C381.98 382.372 461.997 366.852 466.547 334.474C471.097 302.096 398.457 265.121 304.302 251.888Z" fill="white" fill-opacity="0.4"/>
<path fill-rule="evenodd" clip-rule="evenodd" d="M159.314 290.606C163.053 264.006 227.544 251.079 303.359 261.734C379.174 272.388 437.604 302.589 433.866 329.19C430.128 355.79 365.636 368.717 289.82 358.063C214.005 347.408 155.575 317.206 159.314 290.606ZM302.906 265.514C231.347 255.458 170.533 267.252 167.074 291.858C163.616 316.463 218.823 344.562 290.382 354.619C361.941 364.675 422.755 352.881 426.214 328.276C429.672 303.67 374.465 275.571 302.906 265.514Z" fill="white" fill-opacity="0.4"/>
<ellipse cx="318.287" cy="223.691" rx="285" ry="100" transform="rotate(8 318.287 223.691)" fill="#110000"/>
<ellipse cx="318.573" cy="223.379" rx="89.775" ry="31.5" transform="rotate(8 318.573 223.379)" fill="#93D0F5"/>
<path d="M35.6364 183.73C43.3227 129.039 175.911 102.462 331.78 124.368C487.649 146.274 607.775 208.368 600.09 263.058C592.403 317.749 459.815 344.328 303.946 322.422C148.077 300.516 27.9503 238.421 35.6364 183.73ZM330.848 132.141C183.73 111.465 58.7023 135.714 51.5925 186.304C44.4833 236.893 157.983 294.665 305.101 315.341C452.22 336.017 577.247 311.768 584.357 261.179C591.467 210.589 477.967 152.818 330.848 132.141Z" fill="white"/>
<path d="M92.5667 192.323C98.7157 148.57 204.786 127.308 329.481 144.833C454.176 162.358 550.277 212.033 544.128 255.787C537.979 299.54 431.908 320.803 307.213 303.278C182.518 285.753 86.4176 236.076 92.5667 192.323ZM328.736 151.051C211.041 134.509 111.019 153.91 105.331 194.382C99.6438 234.853 190.443 281.072 308.138 297.613C425.833 314.154 525.854 294.754 531.542 254.282C537.229 213.81 446.43 167.592 328.736 151.051Z" fill="white" fill-opacity="0.4"/>
<path d="M137.511 198.597C142.43 163.594 227.286 146.584 327.042 160.604C426.798 174.624 503.679 214.366 498.76 249.369C493.841 284.372 408.984 301.382 309.228 287.362C209.472 273.342 132.592 233.6 137.511 198.597ZM326.446 165.579C232.29 152.346 152.273 167.866 147.723 200.244C143.173 232.622 215.812 269.597 309.968 282.83C404.124 296.063 484.14 280.543 488.691 248.165C493.24 215.787 420.601 178.812 326.446 165.579Z" fill="white" fill-opacity="0.4"/>
<path d="M181.457 204.297C185.196 177.697 249.687 164.77 325.502 175.424C401.318 186.079 459.748 216.281 456.009 242.881C452.271 269.482 387.78 282.409 311.964 271.754C236.149 261.1 177.719 230.898 181.457 204.297ZM325.049 179.206C253.49 169.149 192.676 180.944 189.218 205.549C185.761 230.155 240.967 258.254 312.526 268.31C384.085 278.366 444.9 266.572 448.358 241.966C451.815 217.361 396.608 189.262 325.049 179.206Z" fill="white" fill-opacity="0.4"/>
<ellipse cx="344.287" cy="138.691" rx="285" ry="100" transform="rotate(8 344.287 138.691)" fill="#110000"/>
<ellipse cx="344.573" cy="138.379" rx="89.775" ry="31.5" transform="rotate(8 344.573 138.379)" fill="#93D0F5"/>
<path d="M61.6368 98.7305C69.3231 44.0395 201.911 17.4622 357.78 39.3682C513.649 61.2742 633.775 123.368 626.089 178.059C618.403 232.75 485.815 259.327 329.945 237.421C174.076 215.515 53.9508 153.421 61.6368 98.7305ZM356.849 47.1407C209.73 26.4645 84.7034 50.7139 77.5928 101.303C70.483 151.892 183.983 209.665 331.102 230.341C478.22 251.017 603.246 226.768 610.357 176.179C617.466 125.59 503.967 67.8169 356.849 47.1407Z" fill="white"/>
<path d="M118.567 107.323C124.716 63.5696 230.786 42.3078 355.481 59.8328C480.176 77.3578 576.277 127.033 570.128 170.787C563.979 214.54 457.908 235.803 333.213 218.278C208.518 200.753 112.418 151.076 118.567 107.323ZM354.736 66.0505C237.041 49.5094 137.019 68.9097 131.331 109.382C125.644 149.853 216.443 196.072 334.138 212.613C451.833 229.154 551.854 209.754 557.542 169.282C563.229 128.81 472.43 82.5917 354.736 66.0505Z" fill="white" fill-opacity="0.4"/>
<path d="M163.511 113.597C168.43 78.5942 253.286 61.584 353.042 75.6042C452.798 89.6245 529.679 129.366 524.76 164.369C519.841 199.372 434.984 216.382 335.228 202.362C235.472 188.342 158.592 148.6 163.511 113.597ZM352.446 80.5789C258.29 67.3458 178.273 82.866 173.723 115.244C169.173 147.622 241.812 184.597 335.968 197.83C430.124 211.063 510.14 195.543 514.691 163.165C519.24 130.787 446.601 93.8119 352.446 80.5789Z" fill="white" fill-opacity="0.4"/>
<path d="M207.457 119.297C211.196 92.6969 275.687 79.7698 351.502 90.4243C427.318 101.079 485.748 131.281 482.009 157.881C478.271 184.482 413.78 197.409 337.964 186.754C262.149 176.1 203.719 145.898 207.457 119.297ZM351.049 94.2055C279.49 84.1491 218.676 95.9437 215.218 120.549C211.761 145.155 266.967 173.254 338.526 183.31C410.085 193.366 470.9 181.572 474.358 156.966C477.815 132.361 422.608 104.262 351.049 94.2055Z" fill="white" fill-opacity="0.4"/>
</svg>
