<svg width="374" height="148" viewBox="0 0 374 148" fill="none" xmlns="http://www.w3.org/2000/svg">
<path d="M1.41815 125.467V147.822C35.5963 147.822 69.642 143.516 82.3926 141.363L132.567 132.422L186.716 112.054C220.894 94.9646 255.933 94.3354 269.18 96.1569L311.406 97.6472C344.69 90.6924 366.88 83.4063 373.503 78.7698V46.9761C365.058 65.3568 342.869 81.088 332.768 85.2278L309.419 92.1827L250.303 93.1763C215.032 89.6988 157.571 114.869 128.593 126.46C105.94 132.422 34.3709 128.282 1.41815 125.467Z" fill="#E8C585"/>
<path d="M0.921387 129.441C32.3176 131.825 88.8507 130.434 113.193 129.441C139.025 125.467 170.322 113.213 182.741 107.583C200.228 99.2369 230.432 94.8322 243.348 93.673L309.419 92.6795C348.664 86.2214 364.561 65.3568 374 45.9826V0.279187H0.921387V129.441Z" fill="#F9DDC3"/>
</svg>
