<svg width="334" height="261" viewBox="0 0 334 261" fill="none" xmlns="http://www.w3.org/2000/svg">
<path d="M61.9753 85.3892L89.1963 61.1614L135.224 31.4948C172.344 8.75032 215.402 -1.86122 229.26 1.33365C239.555 3.70698 237.674 14.6837 234.21 20.1225C223.321 32.9154 215.897 30.9377 206.494 32.4836C183.232 32.4836 131.76 47.8114 108.993 58.1948C100.395 62.1162 73.8536 76.8188 61.9753 85.3892Z" fill="#39868F"/>
<path d="M12.4827 152.508L27.8254 115.424C33.2696 106.093 36.0742 88.8891 34.7544 80.8132C31.5869 74.0888 32.4447 69.1113 33.2696 66.4743C34.7544 63.0132 38.7138 60.541 41.1884 61.0354C46.1377 61.0354 50.592 66.4743 51.0869 68.9465C52.5717 76.3632 48.6123 87.5706 45.6428 92.6799C44.8509 94.2621 45.6428 94.6576 45.6428 94.6576C47.2265 95.4487 48.6123 93.6688 49.1072 92.6799L70.389 57.0799C76.3282 46.0043 85.0718 45.5428 88.7013 46.6965C93.8485 47.4877 93.6506 55.8635 92.9907 58.995L52.0768 94.6576L31.7848 118.391L12.4827 152.508Z" fill="#2E3337"/>
<path d="M40.3635 244.047C41.1554 232.181 43.663 201.525 44.8179 187.681C44.8179 161.574 81.4423 126.699 99.7546 112.525C131.43 84.4407 187.852 76.2449 221.012 75.4418C254.172 74.6387 254.666 75.4418 277.433 85.3307C300.2 95.2196 313.068 104.614 324.946 93.7362C336.824 82.8584 338.804 63.5751 319.997 50.7196C288.321 28.5685 223.321 29.9529 194.78 33.414C152.811 33.414 103.384 57.8066 83.917 70.0029C33.4346 101.631 13.1426 144.664 9.1832 162.958C1.75931 175.814 1.26439 187.681 1.26439 187.681C-0.22038 220.314 1.26439 244.047 1.26439 252.947C3.2441 255.914 11.6578 260.364 20.5665 260.364C29.4752 260.364 41.8483 249.486 40.3635 244.047Z" fill="#8DD2CA"/>
</svg>
