<svg width="375" height="812" viewBox="0 0 375 812" fill="none" xmlns="http://www.w3.org/2000/svg">
<g clip-path="url(#clip0_786_133)">
<rect x="2" width="426" height="922" fill="#FFF0E2"/>
<path d="M2.41821 125.467V147.822C36.5964 147.822 70.6421 143.516 83.3927 141.363L133.567 132.422L187.716 112.054C221.894 94.9646 256.933 94.3354 270.18 96.1569L312.406 97.6472C345.69 90.6924 367.88 83.4063 374.503 78.7698V46.9761C366.058 65.3568 343.869 81.088 333.768 85.2278L310.419 92.1827L251.303 93.1762C216.032 89.6988 158.571 114.869 129.593 126.46C106.94 132.422 35.371 128.282 2.41821 125.467Z" fill="#E8C585"/>
<path d="M1.92139 129.441C33.3176 131.825 89.8507 130.434 114.193 129.441C140.025 125.467 171.322 113.213 183.741 107.583C201.228 99.2369 231.432 94.8322 244.348 93.673L310.419 92.6795C349.664 86.2214 365.561 65.3568 375 45.9826V0.279187H1.92139V129.441Z" fill="#F9DDC3"/>
<path d="M76.9753 215.389L104.196 191.161L150.224 161.495C187.344 138.75 230.402 128.139 244.26 131.334C254.555 133.707 252.674 144.684 249.21 150.123C238.321 162.915 230.897 160.938 221.494 162.484C198.232 162.484 146.76 177.811 123.993 188.195C115.395 192.116 88.8536 206.819 76.9753 215.389Z" fill="#39868F"/>
<path d="M27.4827 282.508L42.8254 245.424C48.2696 236.093 51.0741 218.889 49.7543 210.813C46.5868 204.089 47.4447 199.111 48.2696 196.474C49.7543 193.013 53.7137 190.541 56.1884 191.035C61.1376 191.035 65.592 196.474 66.0869 198.947C67.5717 206.363 63.6123 217.571 60.6427 222.68C59.8508 224.262 60.6427 224.658 60.6427 224.658C62.2265 225.449 63.6123 223.669 64.1072 222.68L85.389 187.08C91.3281 176.004 100.072 175.543 103.701 176.697C108.848 177.488 108.651 185.864 107.991 188.995L67.0767 224.658L46.7848 248.391L27.4827 282.508Z" fill="#2E3337"/>
<path d="M55.3635 374.047C56.1554 362.181 58.663 331.525 59.8179 317.681C59.8179 291.574 96.4423 256.699 114.755 242.525C146.43 214.441 202.852 206.245 236.012 205.442C269.172 204.639 269.666 205.442 292.433 215.331C315.2 225.22 328.068 234.614 339.946 223.736C351.824 212.858 353.804 193.575 334.997 180.72C303.321 158.568 238.321 159.953 209.78 163.414C167.811 163.414 118.384 187.807 98.917 200.003C48.4346 231.631 28.1426 274.664 24.1832 292.958C16.7593 305.814 16.2644 317.681 16.2644 317.681C14.7796 350.314 16.2644 374.047 16.2644 382.947C18.2441 385.914 26.6578 390.364 35.5665 390.364C44.4752 390.364 56.8483 379.486 55.3635 374.047Z" fill="#8DD2CA"/>
<path d="M306.621 542.586L279.4 566.814L233.372 596.48C196.252 619.225 153.194 629.836 139.336 626.642C129.041 624.268 130.922 613.292 134.387 607.853C145.275 595.06 152.699 597.038 162.103 595.492C185.364 595.492 236.836 580.164 259.603 569.78C268.201 565.859 294.743 551.156 306.621 542.586Z" fill="#39868F"/>
<path d="M356.113 475.468L340.771 512.551C335.326 521.882 332.522 539.086 333.842 547.162C337.009 553.886 336.151 558.864 335.326 561.501C333.842 564.962 329.882 567.434 327.408 566.94C322.458 566.94 318.004 561.501 317.509 559.029C316.024 551.612 319.984 540.405 322.953 535.295C323.745 533.713 322.953 533.318 322.953 533.318C321.369 532.526 319.984 534.306 319.489 535.295L298.207 570.895C292.268 581.971 283.524 582.432 279.895 581.279C274.747 580.488 274.945 572.112 275.605 568.98L316.519 533.318L336.811 509.584L356.113 475.468Z" fill="#2E3337"/>
<path d="M328.233 383.928C327.441 395.795 324.933 426.45 323.778 440.295C323.778 466.401 287.154 501.276 268.842 515.45C237.166 543.535 180.745 551.73 147.585 552.533C114.425 553.337 113.93 552.533 91.1631 542.645C68.3965 532.756 55.5285 523.361 43.6503 534.239C31.772 545.117 29.7923 564.4 48.5995 577.256C80.2748 599.407 145.275 598.022 173.816 594.561C215.785 594.561 265.212 570.169 284.679 557.972C335.162 526.345 355.454 483.311 359.413 465.017C366.837 452.161 367.332 440.295 367.332 440.295C368.817 407.661 367.332 383.928 367.332 375.028C365.352 372.061 356.938 367.611 348.03 367.611C339.121 367.611 326.748 378.489 328.233 383.928Z" fill="#8DD2CA"/>
</g>
<defs>
<clipPath id="clip0_786_133">
<rect width="375" height="812" fill="white"/>
</clipPath>
</defs>
</svg>
